
                <svg 
                  xmlns="http://www.w3.org/2000/svg" 
                  viewBox="0 0 800 600" 
                  width="800mm" 
                  height="600mm"
                  style="transform: scale(1, -1)">
                    <path 
                    d="M 0.000000 0.000000  L 0.000000 600.000000  L 800.000000 600.000000  L 800.000000 0.000000" 
                    stroke-width="1" 
                    stroke="black" 
                    fill="none" 
                    stroke-linecap="round"
                    stroke-linejoin="round"
                    style="transform: scale(1, 1);"
                    />
<path 
                    d="M 187.812810 498.215781  L 190.900810 496.439781  L 193.764810 495.111781  L 196.404810 494.231781  L 198.820810 493.799781  L 201.012810 493.815781  L 202.980810 494.279781  L 204.724810 495.191781  L 206.244810 496.551781  L 207.540810 498.359781  L 208.612810 500.615781  L 209.460810 503.319781  L 210.084810 506.471781  L 210.540810 509.947781  L 211.164810 513.003781  L 212.012810 515.515781  L 213.084810 517.483781  L 214.380810 518.907781  L 215.900810 519.787781  L 217.644810 520.123781  L 219.612810 519.915781  L 221.804810 519.163781  L 224.220810 517.867781  L 226.860810 516.027781  L 229.724810 513.643781  L 232.812810 510.715781  L 236.012810 507.611781  L 239.212810 504.699781  L 242.412810 501.979781  L 245.612810 499.451781  L 248.812810 497.115781  L 252.012810 494.971781  L 255.212810 493.019781  L 258.412810 491.259781  L 261.612810 489.691781  L 264.812810 488.315781  L 268.012810 487.131781  L 271.212810 486.139781  L 274.324810 485.291781  L 276.820810 484.299781  L 278.612810 483.115781  L 279.700810 481.739781  L 280.084810 480.171781  L 279.764810 478.411781  L 278.740810 476.459781  L 277.012810 474.315781  L 274.580810 471.979781  L 271.444810 469.451781  L 267.604810 466.731781  L 263.060810 463.819781  L 257.812810 460.715781  L 252.308810 457.707781  L 246.996810 455.083781  L 241.876810 452.843781  L 236.948810 450.987781  L 232.212810 449.515781  L 227.668810 448.427781  L 223.316810 447.723781  L 219.156810 447.403781  L 215.188810 447.467781  L 211.412810 447.915781  L 207.828810 448.747781  L 204.436810 449.963781  L 201.212810 451.527781  L 198.012810 453.223781  L 194.812810 455.015781  L 191.612810 456.903781  L 188.412810 458.887781  L 185.212810 460.967781  L 182.012810 463.143781  L 178.812810 465.415781  L 175.612810 467.783781  L 172.412810 470.247781  L 169.212810 472.807781  L 166.012810 475.463781  L 162.812810 478.215781  L 159.820810 480.951781  L 157.244810 483.559781  L 155.084810 486.039781  L 153.340810 488.391781  L 152.012810 490.615781  L 151.100810 492.711781  L 150.604810 494.679781  L 150.524810 496.519781  L 150.860810 498.231781  L 151.612810 499.815781  L 152.780810 501.271781  L 154.364810 502.599781  L 156.324810 503.783781  L 158.420810 504.727781  L 160.612810 505.415781  L 162.900810 505.847781  L 165.284810 506.023781  L 167.764810 505.943781  L 170.340810 505.607781  L 173.012810 505.015781  L 175.780810 504.167781  L 178.644810 503.063781  L 181.604810 501.703781  L 184.660810 500.087781  L 187.812810 498.215781" 
                    stroke-width="1" 
                    stroke="black" 
                    fill="none" 
                    stroke-linecap="round"
                    stroke-linejoin="round"
                    style="transform: scale(1, 1);"
                    />
<path 
                    d="M 675.360203 401.948755  L 669.968203 404.492755  L 664.992203 406.524755  L 660.432203 408.044755  L 656.288203 409.052755  L 652.560203 409.548755  L 649.248203 409.532755  L 646.352203 409.004755  L 643.872203 407.964755  L 641.808203 406.412755  L 640.160203 404.348755  L 638.928203 401.772755  L 638.112203 398.684755  L 637.608203 395.208755  L 636.792203 392.088755  L 635.560203 389.448755  L 633.912203 387.288755  L 631.848203 385.608755  L 629.368203 384.408755  L 626.472203 383.688755  L 623.160203 383.448755  L 619.432203 383.688755  L 615.288203 384.408755  L 610.728203 385.608755  L 605.752203 387.288755  L 600.360203 389.448755  L 594.856203 391.816755  L 589.544203 394.120755  L 584.424203 396.360755  L 579.496203 398.536755  L 574.760203 400.648755  L 570.216203 402.696755  L 565.864203 404.680755  L 561.704203 406.600755  L 557.736203 408.456755  L 553.960203 410.248755  L 550.376203 411.976755  L 546.984203 413.640755  L 543.856203 415.248755  L 541.424203 416.848755  L 539.760203 418.448755  L 538.864203 420.048755  L 538.736203 421.648755  L 539.376203 423.248755  L 540.784203 424.848755  L 542.960203 426.448755  L 545.904203 428.048755  L 549.616203 429.648755  L 554.096203 431.248755  L 559.344203 432.848755  L 565.360203 434.448755  L 571.792203 436.080755  L 578.288203 437.776755  L 584.848203 439.536755  L 591.472203 441.360755  L 598.160203 443.248755  L 604.912203 445.200755  L 611.728203 447.216755  L 618.608203 449.296755  L 625.552203 451.440755  L 632.560203 453.648755  L 639.632203 455.920755  L 646.768203 458.256755  L 653.864203 460.576755  L 660.296203 462.400755  L 665.960203 463.648755  L 670.856203 464.320755  L 674.984203 464.416755  L 678.344203 463.936755  L 680.936203 462.880755  L 682.760203 461.248755  L 683.816203 459.040755  L 684.104203 456.256755  L 683.624203 452.896755  L 682.376203 448.960755  L 680.360203 444.448755  L 678.200203 439.744755  L 676.520203 435.232755  L 675.320203 430.912755  L 674.600203 426.784755  L 674.360203 422.848755  L 674.600203 419.104755  L 675.320203 415.552755  L 676.520203 412.192755  L 678.200203 409.024755  L 680.360203 406.048755  L 683.000203 403.264755  L 686.120203 400.672755  L 689.568203 398.300755  L 692.432203 396.316755  L 694.560203 394.748755  L 695.952203 393.596755  L 696.608203 392.860755  L 696.528203 392.540755  L 695.712203 392.636755  L 694.160203 393.148755  L 691.872203 394.076755  L 688.848203 395.420755  L 685.088203 397.180755  L 680.592203 399.356755  L 675.360203 401.948755" 
                    stroke-width="1" 
                    stroke="black" 
                    fill="none" 
                    stroke-linecap="round"
                    stroke-linejoin="round"
                    style="transform: scale(1, 1);"
                    />
<path 
                    d="M 0.000000 400.000000  L 40.000000 380.000000  L 60.000000 370.000000  L 90.000000 450.000000  L 150.000000 400.000000  L 200.000000 350.000000  L 350.000000 320.000000  L 370.000000 450.000000  L 420.000000 430.000000  L 500.000000 350.000000  L 700.000000 300.000000  L 800.000000 250.000000  L 800.000000 0.000000  L 0.000000 0.000000" 
                    stroke-width="1" 
                    stroke="black" 
                    fill="none" 
                    stroke-linecap="round"
                    stroke-linejoin="round"
                    style="transform: scale(1, 1);"
                    />
<path 
                    d="M 0.000000 120.000000  L 21.395000 116.628500  L 41.580000 115.314000  L 60.555000 116.056500  L 78.320000 118.856000  L 94.875000 123.712500  L 110.220000 130.626000  L 124.355000 139.596500  L 137.280000 150.624000  L 148.995000 163.708500  L 160.000000 177.200000  L 171.000000 188.772000  L 182.000000 198.408000  L 193.000000 206.108000  L 204.000000 211.872000  L 215.000000 215.700000  L 226.000000 217.592000  L 237.000000 217.548000  L 248.000000 215.568000  L 259.000000 212.462000  L 270.000000 209.800000  L 281.000000 207.622000  L 292.000000 205.928000  L 303.000000 204.718000  L 314.000000 203.992000  L 325.000000 203.750000  L 336.000000 203.992000  L 347.000000 204.718000  L 358.000000 205.672000  L 369.000000 206.178000  L 380.000000 206.200000  L 391.000000 205.738000  L 402.000000 204.792000  L 413.000000 203.362000  L 424.000000 201.448000  L 435.000000 199.050000  L 446.000000 196.168000  L 457.000000 192.924500  L 468.000000 189.762000  L 479.000000 186.720500  L 490.000000 183.800000  L 501.000000 181.000500  L 512.000000 178.322000  L 523.000000 175.764500  L 534.000000 173.328000  L 545.000000 171.012500  L 556.000000 168.890000  L 567.000000 167.322500  L 578.000000 166.360000  L 589.000000 166.002500  L 600.000000 166.250000  L 611.000000 167.102500  L 622.000000 168.560000  L 633.000000 170.622500  L 644.000000 173.290000  L 655.000000 176.437500  L 666.000000 179.160000  L 677.000000 181.277500  L 688.000000 182.790000  L 699.000000 183.697500  L 710.000000 184.000000  L 721.000000 183.697500  L 732.000000 182.790000  L 743.000000 181.277500  L 753.920000 179.208000  L 763.875000 177.112500  L 772.620000 175.138000  L 780.155000 173.284500  L 786.480000 171.552000  L 791.595000 169.940500  L 795.500000 168.450000  L 798.195000 167.080500  L 799.680000 165.832000  L 800.000000 164.632500  L 800.000000 162.130000  L 800.000000 157.812500  L 800.000000 151.680000  L 800.000000 143.732500  L 800.000000 133.970000  L 800.000000 122.392500  L 800.000000 109.000000  L 800.000000 93.792500  L 800.000000 76.832000  L 800.000000 60.552000  L 800.000000 46.208000  L 800.000000 33.800000  L 800.000000 23.328000  L 800.000000 14.792000  L 800.000000 8.192000  L 800.000000 3.528000  L 800.000000 0.800000  L 799.920000 0.000000  L 788.480000 0.000000  L 757.680000 0.000000  L 707.520000 0.000000  L 638.000000 0.000000  L 549.120000 0.000000  L 440.880000 0.000000  L 313.280000 0.000000  L 166.320000 0.000000  L 0.000000 0.000000  L 0.000000 0.000000" 
                    stroke-width="1" 
                    stroke="black" 
                    fill="none" 
                    stroke-linecap="round"
                    stroke-linejoin="round"
                    style="transform: scale(1, 1);"
                    />
<path 
                    d="M 60.000000 370.000000  L 30.000000 290.000000  M 350.000000 320.000000  L 335.000000 240.000000" 
                    stroke-width="1" 
                    stroke="black" 
                    fill="none" 
                    stroke-linecap="round"
                    stroke-linejoin="round"
                    style="transform: scale(1, 1);"
                    />
<path 
                    d="M 550.000000 0.000000  L 550.000000 48.160000  L 550.000000 80.640000  L 550.000000 97.440000  L 549.640000 100.108000  L 546.000000 101.200000  L 538.440000 103.468000  L 526.960000 106.912000  L 514.440000 112.828000  L 505.760000 123.412000  L 501.000000 138.700000  L 500.000000 158.260000  L 500.000000 174.640000  L 500.000000 185.140000  L 500.000000 189.760000  L 500.000000 190.200000  L 500.000000 191.152000  L 500.000000 192.888000  L 500.008000 195.400000  L 500.512000 198.200000  L 501.800000 201.000000  L 503.872000 203.800000  L 506.600000 206.344000  L 509.400000 207.464000  L 512.200000 207.016000  L 515.000000 205.000000  L 517.408000 200.240000  L 519.032000 191.560000  L 519.872000 178.960000  L 520.108000 163.088000  L 521.200000 149.200000  L 523.468000 138.448000  L 526.912000 130.832000  L 531.100000 126.352000  L 535.300000 125.008000  L 539.500000 126.800000  L 543.652000 131.856000  L 546.928000 142.384000  L 549.028000 159.184000  L 549.952000 182.256000  L 550.000000 208.200000  L 550.000000 227.632000  L 550.000000 240.008000  L 550.008000 245.400000  L 550.512000 248.200000  L 551.800000 251.000000  L 553.872000 253.800000  L 556.600000 256.344000  L 559.400000 257.464000  L 562.200000 257.016000  L 565.000000 255.000000  L 567.408000 251.808000  L 569.032000 247.832000  L 569.872000 243.072000  L 570.000000 237.168000  L 570.000000 227.200000  L 570.000000 212.528000  L 570.000000 193.152000  L 570.288000 172.816000  L 571.352000 157.864000  L 573.200000 148.400000  L 575.800000 144.264000  L 578.600000 142.696000  L 581.400000 142.696000  L 584.200000 144.264000  L 586.800000 147.800000  L 588.648000 154.408000  L 589.712000 164.152000  L 590.000000 176.968000  L 590.000000 188.952000  L 590.000000 197.800000  L 590.000000 203.512000  L 590.128000 206.600000  L 590.968000 209.400000  L 592.592000 212.200000  L 595.000000 215.000000  L 597.800000 217.016000  L 600.600000 217.464000  L 603.400000 216.344000  L 606.128000 213.800000  L 608.200000 211.000000  L 609.488000 208.200000  L 609.992000 205.400000  L 610.000000 201.160000  L 610.000000 193.040000  L 610.000000 181.000000  L 609.936000 165.328000  L 608.704000 150.992000  L 605.904000 139.792000  L 601.536000 131.728000  L 596.200000 126.000000  L 591.552000 120.400000  L 587.688000 114.800000  L 584.608000 109.200000  L 582.312000 103.600000  L 580.800000 98.000000  L 580.072000 92.400000  L 580.000000 85.008000  L 580.000000 67.648000  L 580.000000 39.312000  L 580.000000 0.000000" 
                    stroke-width="1" 
                    stroke="black" 
                    fill="none" 
                    stroke-linecap="round"
                    stroke-linejoin="round"
                    style="transform: scale(1, 1);"
                    />
                </svg>
            