
                <svg 
                  xmlns="http://www.w3.org/2000/svg" 
                  viewBox="0 0 800 600" 
                  width="800mm" 
                  height="600mm"
                  style="transform: scale(1, -1)">
                    <path 
                    d="M 0.000000 0.000000  L 0.000000 600.000000  L 800.000000 600.000000  L 800.000000 0.000000" 
                    stroke-width="1" 
                    stroke="black" 
                    fill="skyblue" 
                    stroke-linecap="round"
                    stroke-linejoin="round"
                    style="transform: scale(1, 1);"
                    />
<path 
                    d="M 622.095965 551.999049  L 625.183965 550.223049  L 628.047965 548.895049  L 630.687965 548.015049  L 633.103965 547.583049  L 635.295965 547.599049  L 637.263965 548.063049  L 639.007965 548.975049  L 640.527965 550.335049  L 641.823965 552.143049  L 642.895965 554.399049  L 643.743965 557.103049  L 644.367965 560.255049  L 644.823965 563.731049  L 645.447965 566.787049  L 646.295965 569.299049  L 647.367965 571.267049  L 648.663965 572.691049  L 650.183965 573.571049  L 651.927965 573.907049  L 653.895965 573.699049  L 656.087965 572.947049  L 658.503965 571.651049  L 661.143965 569.811049  L 664.007965 567.427049  L 667.095965 564.499049  L 670.295965 561.395049  L 673.495965 558.483049  L 676.695965 555.763049  L 679.895965 553.235049  L 683.095965 550.899049  L 686.295965 548.755049  L 689.495965 546.803049  L 692.695965 545.043049  L 695.895965 543.475049  L 699.095965 542.099049  L 702.295965 540.915049  L 705.495965 539.923049  L 708.607965 539.075049  L 711.103965 538.083049  L 712.895965 536.899049  L 713.983965 535.523049  L 714.367965 533.955049  L 714.047965 532.195049  L 713.023965 530.243049  L 711.295965 528.099049  L 708.863965 525.763049  L 705.727965 523.235049  L 701.887965 520.515049  L 697.343965 517.603049  L 692.095965 514.499049  L 686.591965 511.491049  L 681.279965 508.867049  L 676.159965 506.627049  L 671.231965 504.771049  L 666.495965 503.299049  L 661.951965 502.211049  L 657.599965 501.507049  L 653.439965 501.187049  L 649.471965 501.251049  L 645.695965 501.699049  L 642.111965 502.531049  L 638.719965 503.747049  L 635.495965 505.311049  L 632.295965 507.007049  L 629.095965 508.799049  L 625.895965 510.687049  L 622.695965 512.671049  L 619.495965 514.751049  L 616.295965 516.927049  L 613.095965 519.199049  L 609.895965 521.567049  L 606.695965 524.031049  L 603.495965 526.591049  L 600.295965 529.247049  L 597.095965 531.999049  L 594.103965 534.735049  L 591.527965 537.343049  L 589.367965 539.823049  L 587.623965 542.175049  L 586.295965 544.399049  L 585.383965 546.495049  L 584.887965 548.463049  L 584.807965 550.303049  L 585.143965 552.015049  L 585.895965 553.599049  L 587.063965 555.055049  L 588.647965 556.383049  L 590.607965 557.567049  L 592.703965 558.511049  L 594.895965 559.199049  L 597.183965 559.631049  L 599.567965 559.807049  L 602.047965 559.727049  L 604.623965 559.391049  L 607.295965 558.799049  L 610.063965 557.951049  L 612.927965 556.847049  L 615.887965 555.487049  L 618.943965 553.871049  L 622.095965 551.999049" 
                    stroke-width="1" 
                    stroke="black" 
                    fill="lightgrey" 
                    stroke-linecap="round"
                    stroke-linejoin="round"
                    style="transform: scale(1, 1);"
                    />
<path 
                    d="M 529.370682 461.898869  L 523.978682 464.442869  L 519.002682 466.474869  L 514.442682 467.994869  L 510.298682 469.002869  L 506.570682 469.498869  L 503.258682 469.482869  L 500.362682 468.954869  L 497.882682 467.914869  L 495.818682 466.362869  L 494.170682 464.298869  L 492.938682 461.722869  L 492.122682 458.634869  L 491.618682 455.158869  L 490.802682 452.038869  L 489.570682 449.398869  L 487.922682 447.238869  L 485.858682 445.558869  L 483.378682 444.358869  L 480.482682 443.638869  L 477.170682 443.398869  L 473.442682 443.638869  L 469.298682 444.358869  L 464.738682 445.558869  L 459.762682 447.238869  L 454.370682 449.398869  L 448.866682 451.766869  L 443.554682 454.070869  L 438.434682 456.310869  L 433.506682 458.486869  L 428.770682 460.598869  L 424.226682 462.646869  L 419.874682 464.630869  L 415.714682 466.550869  L 411.746682 468.406869  L 407.970682 470.198869  L 404.386682 471.926869  L 400.994682 473.590869  L 397.866682 475.198869  L 395.434682 476.798869  L 393.770682 478.398869  L 392.874682 479.998869  L 392.746682 481.598869  L 393.386682 483.198869  L 394.794682 484.798869  L 396.970682 486.398869  L 399.914682 487.998869  L 403.626682 489.598869  L 408.106682 491.198869  L 413.354682 492.798869  L 419.370682 494.398869  L 425.802682 496.030869  L 432.298682 497.726869  L 438.858682 499.486869  L 445.482682 501.310869  L 452.170682 503.198869  L 458.922682 505.150869  L 465.738682 507.166869  L 472.618682 509.246869  L 479.562682 511.390869  L 486.570682 513.598869  L 493.642682 515.870869  L 500.778682 518.206869  L 507.874682 520.526869  L 514.306682 522.350869  L 519.970682 523.598869  L 524.866682 524.270869  L 528.994682 524.366869  L 532.354682 523.886869  L 534.946682 522.830869  L 536.770682 521.198869  L 537.826682 518.990869  L 538.114682 516.206869  L 537.634682 512.846869  L 536.386682 508.910869  L 534.370682 504.398869  L 532.210682 499.694869  L 530.530682 495.182869  L 529.330682 490.862869  L 528.610682 486.734869  L 528.370682 482.798869  L 528.610682 479.054869  L 529.330682 475.502869  L 530.530682 472.142869  L 532.210682 468.974869  L 534.370682 465.998869  L 537.010682 463.214869  L 540.130682 460.622869  L 543.578682 458.250869  L 546.442682 456.266869  L 548.570682 454.698869  L 549.962682 453.546869  L 550.618682 452.810869  L 550.538682 452.490869  L 549.722682 452.586869  L 548.170682 453.098869  L 545.882682 454.026869  L 542.858682 455.370869  L 539.098682 457.130869  L 534.602682 459.306869  L 529.370682 461.898869" 
                    stroke-width="1" 
                    stroke="black" 
                    fill="lightgrey" 
                    stroke-linecap="round"
                    stroke-linejoin="round"
                    style="transform: scale(1, 1);"
                    />
<path 
                    d="M 0.000000 400.000000  L 40.000000 380.000000  L 60.000000 370.000000  L 90.000000 450.000000  L 150.000000 400.000000  L 200.000000 350.000000  L 350.000000 320.000000  L 370.000000 450.000000  L 420.000000 430.000000  L 500.000000 350.000000  L 700.000000 300.000000  L 800.000000 250.000000  L 800.000000 0.000000  L 0.000000 0.000000" 
                    stroke-width="1" 
                    stroke="black" 
                    fill="brown" 
                    stroke-linecap="round"
                    stroke-linejoin="round"
                    style="transform: scale(1, 1);"
                    />
<path 
                    d="M 0.000000 120.000000  L 21.395000 116.628500  L 41.580000 115.314000  L 60.555000 116.056500  L 78.320000 118.856000  L 94.875000 123.712500  L 110.220000 130.626000  L 124.355000 139.596500  L 137.280000 150.624000  L 148.995000 163.708500  L 160.000000 177.200000  L 171.000000 188.772000  L 182.000000 198.408000  L 193.000000 206.108000  L 204.000000 211.872000  L 215.000000 215.700000  L 226.000000 217.592000  L 237.000000 217.548000  L 248.000000 215.568000  L 259.000000 212.462000  L 270.000000 209.800000  L 281.000000 207.622000  L 292.000000 205.928000  L 303.000000 204.718000  L 314.000000 203.992000  L 325.000000 203.750000  L 336.000000 203.992000  L 347.000000 204.718000  L 358.000000 205.672000  L 369.000000 206.178000  L 380.000000 206.200000  L 391.000000 205.738000  L 402.000000 204.792000  L 413.000000 203.362000  L 424.000000 201.448000  L 435.000000 199.050000  L 446.000000 196.168000  L 457.000000 192.924500  L 468.000000 189.762000  L 479.000000 186.720500  L 490.000000 183.800000  L 501.000000 181.000500  L 512.000000 178.322000  L 523.000000 175.764500  L 534.000000 173.328000  L 545.000000 171.012500  L 556.000000 168.890000  L 567.000000 167.322500  L 578.000000 166.360000  L 589.000000 166.002500  L 600.000000 166.250000  L 611.000000 167.102500  L 622.000000 168.560000  L 633.000000 170.622500  L 644.000000 173.290000  L 655.000000 176.437500  L 666.000000 179.160000  L 677.000000 181.277500  L 688.000000 182.790000  L 699.000000 183.697500  L 710.000000 184.000000  L 721.000000 183.697500  L 732.000000 182.790000  L 743.000000 181.277500  L 753.920000 179.208000  L 763.875000 177.112500  L 772.620000 175.138000  L 780.155000 173.284500  L 786.480000 171.552000  L 791.595000 169.940500  L 795.500000 168.450000  L 798.195000 167.080500  L 799.680000 165.832000  L 800.000000 164.632500  L 800.000000 162.130000  L 800.000000 157.812500  L 800.000000 151.680000  L 800.000000 143.732500  L 800.000000 133.970000  L 800.000000 122.392500  L 800.000000 109.000000  L 800.000000 93.792500  L 800.000000 76.832000  L 800.000000 60.552000  L 800.000000 46.208000  L 800.000000 33.800000  L 800.000000 23.328000  L 800.000000 14.792000  L 800.000000 8.192000  L 800.000000 3.528000  L 800.000000 0.800000  L 799.920000 0.000000  L 788.480000 0.000000  L 757.680000 0.000000  L 707.520000 0.000000  L 638.000000 0.000000  L 549.120000 0.000000  L 440.880000 0.000000  L 313.280000 0.000000  L 166.320000 0.000000  L 0.000000 0.000000  L 0.000000 0.000000" 
                    stroke-width="1" 
                    stroke="black" 
                    fill="darkgreen" 
                    stroke-linecap="round"
                    stroke-linejoin="round"
                    style="transform: scale(1, 1);"
                    />
<path 
                    d="M 60.000000 370.000000  L 30.000000 290.000000  M 350.000000 320.000000  L 335.000000 240.000000" 
                    stroke-width="1" 
                    stroke="black" 
                    fill="none" 
                    stroke-linecap="round"
                    stroke-linejoin="round"
                    style="transform: scale(1, 1);"
                    />
<path 
                    d="M 550.000000 0.000000  L 550.000000 48.160000  L 550.000000 80.640000  L 550.000000 97.440000  L 549.640000 100.108000  L 546.000000 101.200000  L 538.440000 103.468000  L 526.960000 106.912000  L 514.440000 112.828000  L 505.760000 123.412000  L 501.000000 138.700000  L 500.000000 158.260000  L 500.000000 174.640000  L 500.000000 185.140000  L 500.000000 189.760000  L 500.000000 190.200000  L 500.000000 191.152000  L 500.000000 192.888000  L 500.008000 195.400000  L 500.512000 198.200000  L 501.800000 201.000000  L 503.872000 203.800000  L 506.600000 206.344000  L 509.400000 207.464000  L 512.200000 207.016000  L 515.000000 205.000000  L 517.408000 200.240000  L 519.032000 191.560000  L 519.872000 178.960000  L 520.108000 163.088000  L 521.200000 149.200000  L 523.468000 138.448000  L 526.912000 130.832000  L 531.100000 126.352000  L 535.300000 125.008000  L 539.500000 126.800000  L 543.652000 131.856000  L 546.928000 142.384000  L 549.028000 159.184000  L 549.952000 182.256000  L 550.000000 208.200000  L 550.000000 227.632000  L 550.000000 240.008000  L 550.008000 245.400000  L 550.512000 248.200000  L 551.800000 251.000000  L 553.872000 253.800000  L 556.600000 256.344000  L 559.400000 257.464000  L 562.200000 257.016000  L 565.000000 255.000000  L 567.408000 251.808000  L 569.032000 247.832000  L 569.872000 243.072000  L 570.000000 237.168000  L 570.000000 227.200000  L 570.000000 212.528000  L 570.000000 193.152000  L 570.288000 172.816000  L 571.352000 157.864000  L 573.200000 148.400000  L 575.800000 144.264000  L 578.600000 142.696000  L 581.400000 142.696000  L 584.200000 144.264000  L 586.800000 147.800000  L 588.648000 154.408000  L 589.712000 164.152000  L 590.000000 176.968000  L 590.000000 188.952000  L 590.000000 197.800000  L 590.000000 203.512000  L 590.128000 206.600000  L 590.968000 209.400000  L 592.592000 212.200000  L 595.000000 215.000000  L 597.800000 217.016000  L 600.600000 217.464000  L 603.400000 216.344000  L 606.128000 213.800000  L 608.200000 211.000000  L 609.488000 208.200000  L 609.992000 205.400000  L 610.000000 201.160000  L 610.000000 193.040000  L 610.000000 181.000000  L 609.936000 165.328000  L 608.704000 150.992000  L 605.904000 139.792000  L 601.536000 131.728000  L 596.200000 126.000000  L 591.552000 120.400000  L 587.688000 114.800000  L 584.608000 109.200000  L 582.312000 103.600000  L 580.800000 98.000000  L 580.072000 92.400000  L 580.000000 85.008000  L 580.000000 67.648000  L 580.000000 39.312000  L 580.000000 0.000000" 
                    stroke-width="1" 
                    stroke="black" 
                    fill="YellowGreen" 
                    stroke-linecap="round"
                    stroke-linejoin="round"
                    style="transform: scale(1, 1);"
                    />
                </svg>
            