
                <svg 
                  xmlns="http://www.w3.org/2000/svg" 
                  viewBox="0 0 800 600" 
                  width="800mm" 
                  height="600mm"
                  style="transform: scale(1, -1)">
                    <path 
                    d="M 0.000000 0.000000  L 0.000000 600.000000  L 800.000000 600.000000  L 800.000000 0.000000" 
                    stroke-width="1" 
                    stroke="black" 
                    fill="skyblue" 
                    stroke-linecap="round"
                    stroke-linejoin="round"
                    style="transform: scale(1, 1);"
                    />
<path 
                    d="M 148.661644 510.779554  L 151.749644 509.003554  L 154.613644 507.675554  L 157.253644 506.795554  L 159.669644 506.363554  L 161.861644 506.379554  L 163.829644 506.843554  L 165.573644 507.755554  L 167.093644 509.115554  L 168.389644 510.923554  L 169.461644 513.179554  L 170.309644 515.883554  L 170.933644 519.035554  L 171.389644 522.511554  L 172.013644 525.567554  L 172.861644 528.079554  L 173.933644 530.047554  L 175.229644 531.471554  L 176.749644 532.351554  L 178.493644 532.687554  L 180.461644 532.479554  L 182.653644 531.727554  L 185.069644 530.431554  L 187.709644 528.591554  L 190.573644 526.207554  L 193.661644 523.279554  L 196.861644 520.175554  L 200.061644 517.263554  L 203.261644 514.543554  L 206.461644 512.015554  L 209.661644 509.679554  L 212.861644 507.535554  L 216.061644 505.583554  L 219.261644 503.823554  L 222.461644 502.255554  L 225.661644 500.879554  L 228.861644 499.695554  L 232.061644 498.703554  L 235.173644 497.855554  L 237.669644 496.863554  L 239.461644 495.679554  L 240.549644 494.303554  L 240.933644 492.735554  L 240.613644 490.975554  L 239.589644 489.023554  L 237.861644 486.879554  L 235.429644 484.543554  L 232.293644 482.015554  L 228.453644 479.295554  L 223.909644 476.383554  L 218.661644 473.279554  L 213.157644 470.271554  L 207.845644 467.647554  L 202.725644 465.407554  L 197.797644 463.551554  L 193.061644 462.079554  L 188.517644 460.991554  L 184.165644 460.287554  L 180.005644 459.967554  L 176.037644 460.031554  L 172.261644 460.479554  L 168.677644 461.311554  L 165.285644 462.527554  L 162.061644 464.091554  L 158.861644 465.787554  L 155.661644 467.579554  L 152.461644 469.467554  L 149.261644 471.451554  L 146.061644 473.531554  L 142.861644 475.707554  L 139.661644 477.979554  L 136.461644 480.347554  L 133.261644 482.811554  L 130.061644 485.371554  L 126.861644 488.027554  L 123.661644 490.779554  L 120.669644 493.515554  L 118.093644 496.123554  L 115.933644 498.603554  L 114.189644 500.955554  L 112.861644 503.179554  L 111.949644 505.275554  L 111.453644 507.243554  L 111.373644 509.083554  L 111.709644 510.795554  L 112.461644 512.379554  L 113.629644 513.835554  L 115.213644 515.163554  L 117.173644 516.347554  L 119.269644 517.291554  L 121.461644 517.979554  L 123.749644 518.411554  L 126.133644 518.587554  L 128.613644 518.507554  L 131.189644 518.171554  L 133.861644 517.579554  L 136.629644 516.731554  L 139.493644 515.627554  L 142.453644 514.267554  L 145.509644 512.651554  L 148.661644 510.779554" 
                    stroke-width="1" 
                    stroke="black" 
                    fill="lightgrey" 
                    stroke-linecap="round"
                    stroke-linejoin="round"
                    style="transform: scale(1, 1);"
                    />
<path 
                    d="M 693.991441 453.803864  L 688.599441 456.347864  L 683.623441 458.379864  L 679.063441 459.899864  L 674.919441 460.907864  L 671.191441 461.403864  L 667.879441 461.387864  L 664.983441 460.859864  L 662.503441 459.819864  L 660.439441 458.267864  L 658.791441 456.203864  L 657.559441 453.627864  L 656.743441 450.539864  L 656.239441 447.063864  L 655.423441 443.943864  L 654.191441 441.303864  L 652.543441 439.143864  L 650.479441 437.463864  L 647.999441 436.263864  L 645.103441 435.543864  L 641.791441 435.303864  L 638.063441 435.543864  L 633.919441 436.263864  L 629.359441 437.463864  L 624.383441 439.143864  L 618.991441 441.303864  L 613.487441 443.671864  L 608.175441 445.975864  L 603.055441 448.215864  L 598.127441 450.391864  L 593.391441 452.503864  L 588.847441 454.551864  L 584.495441 456.535864  L 580.335441 458.455864  L 576.367441 460.311864  L 572.591441 462.103864  L 569.007441 463.831864  L 565.615441 465.495864  L 562.487441 467.103864  L 560.055441 468.703864  L 558.391441 470.303864  L 557.495441 471.903864  L 557.367441 473.503864  L 558.007441 475.103864  L 559.415441 476.703864  L 561.591441 478.303864  L 564.535441 479.903864  L 568.247441 481.503864  L 572.727441 483.103864  L 577.975441 484.703864  L 583.991441 486.303864  L 590.423441 487.935864  L 596.919441 489.631864  L 603.479441 491.391864  L 610.103441 493.215864  L 616.791441 495.103864  L 623.543441 497.055864  L 630.359441 499.071864  L 637.239441 501.151864  L 644.183441 503.295864  L 651.191441 505.503864  L 658.263441 507.775864  L 665.399441 510.111864  L 672.495441 512.431864  L 678.927441 514.255864  L 684.591441 515.503864  L 689.487441 516.175864  L 693.615441 516.271864  L 696.975441 515.791864  L 699.567441 514.735864  L 701.391441 513.103864  L 702.447441 510.895864  L 702.735441 508.111864  L 702.255441 504.751864  L 701.007441 500.815864  L 698.991441 496.303864  L 696.831441 491.599864  L 695.151441 487.087864  L 693.951441 482.767864  L 693.231441 478.639864  L 692.991441 474.703864  L 693.231441 470.959864  L 693.951441 467.407864  L 695.151441 464.047864  L 696.831441 460.879864  L 698.991441 457.903864  L 701.631441 455.119864  L 704.751441 452.527864  L 708.199441 450.155864  L 711.063441 448.171864  L 713.191441 446.603864  L 714.583441 445.451864  L 715.239441 444.715864  L 715.159441 444.395864  L 714.343441 444.491864  L 712.791441 445.003864  L 710.503441 445.931864  L 707.479441 447.275864  L 703.719441 449.035864  L 699.223441 451.211864  L 693.991441 453.803864" 
                    stroke-width="1" 
                    stroke="black" 
                    fill="lightgrey" 
                    stroke-linecap="round"
                    stroke-linejoin="round"
                    style="transform: scale(1, 1);"
                    />
<path 
                    d="M 0.000000 400.000000  L 40.000000 380.000000  L 60.000000 370.000000  L 90.000000 450.000000  L 150.000000 400.000000  L 200.000000 350.000000  L 350.000000 320.000000  L 370.000000 450.000000  L 420.000000 430.000000  L 500.000000 350.000000  L 700.000000 300.000000  L 800.000000 250.000000  L 800.000000 0.000000  L 0.000000 0.000000" 
                    stroke-width="1" 
                    stroke="black" 
                    fill="brown" 
                    stroke-linecap="round"
                    stroke-linejoin="round"
                    style="transform: scale(1, 1);"
                    />
<path 
                    d="M 0.000000 120.000000  L 21.395000 116.628500  L 41.580000 115.314000  L 60.555000 116.056500  L 78.320000 118.856000  L 94.875000 123.712500  L 110.220000 130.626000  L 124.355000 139.596500  L 137.280000 150.624000  L 148.995000 163.708500  L 160.000000 177.200000  L 171.000000 188.772000  L 182.000000 198.408000  L 193.000000 206.108000  L 204.000000 211.872000  L 215.000000 215.700000  L 226.000000 217.592000  L 237.000000 217.548000  L 248.000000 215.568000  L 259.000000 212.462000  L 270.000000 209.800000  L 281.000000 207.622000  L 292.000000 205.928000  L 303.000000 204.718000  L 314.000000 203.992000  L 325.000000 203.750000  L 336.000000 203.992000  L 347.000000 204.718000  L 358.000000 205.672000  L 369.000000 206.178000  L 380.000000 206.200000  L 391.000000 205.738000  L 402.000000 204.792000  L 413.000000 203.362000  L 424.000000 201.448000  L 435.000000 199.050000  L 446.000000 196.168000  L 457.000000 192.924500  L 468.000000 189.762000  L 479.000000 186.720500  L 490.000000 183.800000  L 501.000000 181.000500  L 512.000000 178.322000  L 523.000000 175.764500  L 534.000000 173.328000  L 545.000000 171.012500  L 556.000000 168.890000  L 567.000000 167.322500  L 578.000000 166.360000  L 589.000000 166.002500  L 600.000000 166.250000  L 611.000000 167.102500  L 622.000000 168.560000  L 633.000000 170.622500  L 644.000000 173.290000  L 655.000000 176.437500  L 666.000000 179.160000  L 677.000000 181.277500  L 688.000000 182.790000  L 699.000000 183.697500  L 710.000000 184.000000  L 721.000000 183.697500  L 732.000000 182.790000  L 743.000000 181.277500  L 753.920000 179.208000  L 763.875000 177.112500  L 772.620000 175.138000  L 780.155000 173.284500  L 786.480000 171.552000  L 791.595000 169.940500  L 795.500000 168.450000  L 798.195000 167.080500  L 799.680000 165.832000  L 800.000000 164.632500  L 800.000000 162.130000  L 800.000000 157.812500  L 800.000000 151.680000  L 800.000000 143.732500  L 800.000000 133.970000  L 800.000000 122.392500  L 800.000000 109.000000  L 800.000000 93.792500  L 800.000000 76.832000  L 800.000000 60.552000  L 800.000000 46.208000  L 800.000000 33.800000  L 800.000000 23.328000  L 800.000000 14.792000  L 800.000000 8.192000  L 800.000000 3.528000  L 800.000000 0.800000  L 799.920000 0.000000  L 788.480000 0.000000  L 757.680000 0.000000  L 707.520000 0.000000  L 638.000000 0.000000  L 549.120000 0.000000  L 440.880000 0.000000  L 313.280000 0.000000  L 166.320000 0.000000  L 0.000000 0.000000  L 0.000000 0.000000" 
                    stroke-width="1" 
                    stroke="black" 
                    fill="darkgreen" 
                    stroke-linecap="round"
                    stroke-linejoin="round"
                    style="transform: scale(1, 1);"
                    />
<path 
                    d="M 60.000000 370.000000  L 30.000000 290.000000  M 350.000000 320.000000  L 335.000000 240.000000" 
                    stroke-width="1" 
                    stroke="black" 
                    fill="none" 
                    stroke-linecap="round"
                    stroke-linejoin="round"
                    style="transform: scale(1, 1);"
                    />
<path 
                    d="M 550.000000 0.000000  L 550.000000 48.160000  L 550.000000 80.640000  L 550.000000 97.440000  L 549.640000 100.108000  L 546.000000 101.200000  L 538.440000 103.468000  L 526.960000 106.912000  L 514.440000 112.828000  L 505.760000 123.412000  L 501.000000 138.700000  L 500.000000 158.260000  L 500.000000 174.640000  L 500.000000 185.140000  L 500.000000 189.760000  L 500.000000 190.200000  L 500.000000 191.152000  L 500.000000 192.888000  L 500.008000 195.400000  L 500.512000 198.200000  L 501.800000 201.000000  L 503.872000 203.800000  L 506.600000 206.344000  L 509.400000 207.464000  L 512.200000 207.016000  L 515.000000 205.000000  L 517.408000 200.240000  L 519.032000 191.560000  L 519.872000 178.960000  L 520.108000 163.088000  L 521.200000 149.200000  L 523.468000 138.448000  L 526.912000 130.832000  L 531.100000 126.352000  L 535.300000 125.008000  L 539.500000 126.800000  L 543.652000 131.856000  L 546.928000 142.384000  L 549.028000 159.184000  L 549.952000 182.256000  L 550.000000 208.200000  L 550.000000 227.632000  L 550.000000 240.008000  L 550.008000 245.400000  L 550.512000 248.200000  L 551.800000 251.000000  L 553.872000 253.800000  L 556.600000 256.344000  L 559.400000 257.464000  L 562.200000 257.016000  L 565.000000 255.000000  L 567.408000 251.808000  L 569.032000 247.832000  L 569.872000 243.072000  L 570.000000 237.168000  L 570.000000 227.200000  L 570.000000 212.528000  L 570.000000 193.152000  L 570.288000 172.816000  L 571.352000 157.864000  L 573.200000 148.400000  L 575.800000 144.264000  L 578.600000 142.696000  L 581.400000 142.696000  L 584.200000 144.264000  L 586.800000 147.800000  L 588.648000 154.408000  L 589.712000 164.152000  L 590.000000 176.968000  L 590.000000 188.952000  L 590.000000 197.800000  L 590.000000 203.512000  L 590.128000 206.600000  L 590.968000 209.400000  L 592.592000 212.200000  L 595.000000 215.000000  L 597.800000 217.016000  L 600.600000 217.464000  L 603.400000 216.344000  L 606.128000 213.800000  L 608.200000 211.000000  L 609.488000 208.200000  L 609.992000 205.400000  L 610.000000 201.160000  L 610.000000 193.040000  L 610.000000 181.000000  L 609.936000 165.328000  L 608.704000 150.992000  L 605.904000 139.792000  L 601.536000 131.728000  L 596.200000 126.000000  L 591.552000 120.400000  L 587.688000 114.800000  L 584.608000 109.200000  L 582.312000 103.600000  L 580.800000 98.000000  L 580.072000 92.400000  L 580.000000 85.008000  L 580.000000 67.648000  L 580.000000 39.312000  L 580.000000 0.000000" 
                    stroke-width="1" 
                    stroke="black" 
                    fill="YellowGreen" 
                    stroke-linecap="round"
                    stroke-linejoin="round"
                    style="transform: scale(1, 1);"
                    />
                </svg>
            